<?xml version="1.0" encoding="UTF-8"?>
<svg version="1.1" viewBox="0 0 2000 992" width="1280" height="1280" xmlns="http://www.w3.org/2000/svg">
<path transform="translate(1441,231)" d="m0 0h58l52 1 1 1 1 15v133l1 50h160l1-197 2-2h111l2 1 1 52v381l-1 69-2 1h-111l-2-2-1-199-4-1h-153l-3 1-1 7v169l-1 24-1 1h-111l-3-2-1-400-2-1h-44l-5 1-1 401-2 1h-221l-4-5-3-10-5-12-7-20-5-13-6-17-4-11-4-10v-2l-191 1-2 1-12 33-6 17-4 11-3 6-3 9-7 20-3 2h-235l-5-5-5-9-7-10-6-10-7-11-9-14-7-11-7-10-5-9-7-10-10-16-9-14-5-7-6-11-6-9-1-5v-178l2-4 4 4 7 10 5 9 4 6v2h2l7 12 14 21 5 9 7 10 7 11 8 13 9 14 10 15 7 11v2h2l1-309 1-1h113l2 2 1 489 2 1 1-6 3-6 6-16 3-7 7-16 6-16 6-14 6-16 7-17 5-13 5-11 20-50 7-18 4-10 5-11 34-85 5-13 3-7 5-13 3-7 7-16 6-16 6-14 6-16 5-11 7-19 5-11 14-35 2-2h105l5 8 6 16 5 11 6 16 7 16 6 16 16 40 5 11 4 10 7 19 4 9 6 14 6 16 6 14 6 16 4 10 5 11 24 60 5 12 6 16 5 11 6 16 6 14 16 40 7 18 4 10 3 7v2h2v-357l-1-1h-102l-15-1-1-2v-84l1-13 1-1zm-416 159-12 30-7 19-6 15-6 17-5 12-7 19-6 14-4 11 1 7h107l1-1-1-9-6-15-7-19-6-15-6-16-6-15-6-17-5-12-7-19-4-6z" fill="#FEFEFE"/>
<path transform="translate(86,232)" d="m0 0h113l6 7 10 16 8 12 7 11 9 14 6 10v2h2l7 12 6 9 7 11 5 7 5 9 4 6v2h2l7 12 14 21 5 9 7 10 7 11 8 13 8 12 7 11 9 14 7 11 12 19 9 14 5 7 5 9 4 6 3 1 1-307 2-1h112l1 1v502l-1 1h-114l-6-9-18-28-7-11-9-14-5-7-5-9-7-10-6-10-7-11-10-15-7-11-12-19-7-11-18-28-5-7-6-11-7-10-18-28-7-11-12-19-6-9-7-11-6-10-2-1-1 308-2 2h-112l-2-2v-500z" fill="#FEFEFE"/>
<path transform="translate(1898,605)" d="m0 0h20l16 4 10 5 11 8 9 9 8 12 4 10 3 14v17l-4 16-7 14-8 10-8 7-5 2v2l-10 5-11 4-9 1h-17l-12-2-10-4-10-6-10-9-7-8-4-7-4-8-3-8-1-9v-18l2-12 4-10 7-11 5-6h2l2-4 5-4h2v-2l15-8z" fill="#FEFEFE"/>
<path transform="translate(1353,768)" d="m0 0h17l6 5 1 8-2 4 1 7 2 11h-5l-3-10-4-2h-8l-1 1-2 11-4-1-1-3v-26l1-4zm4 5-1 2v9l1 1h11l4-4-1-6-3-2z" fill="#FEFEFE"/>
<path transform="translate(1629,768)" d="m0 0h11l7 4 5 9v10l-5 9-6 4h-12l-5-3-4-4-3-7v-8l4-9 5-4zm4 4-7 4-2 2-1 4v8l2 5 5 4 6 1 7-4 3-5 1-6-3-8-5-4z" fill="#FEFEFE"/>
<path transform="translate(1809,768)" d="m0 0h13l8 7 2 3 1 9-2 9-5 5-4 3h-13l-8-7-3-9 1-8 3-6zm2 5-5 4-2 4v10l3 5 4 3h9l5-4 3-8-1-7-4-5-3-2z" fill="#FEFEFE"/>
<path transform="translate(1286,768)" d="m0 0h13l8 7 3 9-1 8-2 5-8 7h-13l-7-6v-2h-2l-2-9 1-9 7-8zm3 5-5 3-3 5v10l4 6 3 2h9l6-5 1-2v-12l-7-7z" fill="#FEFEFE"/>
<path transform="translate(1493,768)" d="m0 0h13l6 4 4 6 1 10-2 8-7 7-2 1h-13l-8-7-3-10 2-10 7-8zm2 5-6 5-1 2v12l4 5 6 3 7-2 5-5 2-5-1-8-4-5-3-2z" fill="#FEFEFE"/>
<path transform="translate(1216,768)" d="m0 0h15l5 4 1 3v8l-3 5-6 3-7 1-2 2-1 7-4 2-1-1v-32zm5 5-2 2v8l3 2 9-1 1-1v-7l-4-3z" fill="#FEFEFE"/>
<path transform="translate(1558,768)" d="m0 0h18l2 1v2l-4 2-11 1-1 7 4 2 8 1v4l-10 1-2 1-1 11-1 2-4-1v-32z" fill="#FEFEFE"/>
<path transform="translate(1418,768)" d="m0 0h24l1 4-9 2-1 3-1 26-3 1-2-5-1-25-9-2v-3z" fill="#FEFEFE"/>
<path transform="translate(1693,769)" d="m0 0h3l1 2 1 24 1 3 11 1 4 2v2l-2 1h-18l-2-2v-31z" fill="#FEFEFE"/>
<path transform="translate(1754,771)" d="m0 0 5 2v14l-1 2-5-1v-16z" fill="#FEFEFE"/>
</svg>
